<svg xmlns="http://www.w3.org/2000/svg" width="64" height="16" viewBox="0 0 64 16">
  <defs>
    <g id="body">
       <path d="M6 3h4v1h2v3h1v6h-1v1H4v-1H3V7h1V4h2V3z" fill="#1f2937"/>
       <path d="M6 4h4v1h1v7H5V5h1z" fill="#f3f4f6"/>
       <rect x="8" y="5" width="1" height="2" fill="#1f2937"/> <!-- Eye -->
       <path d="M10 7h2v1h-2z" fill="#00ff41"/> <!-- Beak cyber green -->
       <!-- Flipper -->
       <path d="M5 8h2v3H5z" fill="#1f2937"/>
    </g>
  </defs>

  <!-- Frame 1 -->
  <use href="#body" x="0" y="0"/>
  <path d="M6 14h2v1H6zM9 14h2v1H9z" fill="#00ff41"/> 

  <!-- Frame 2 -->
  <use href="#body" x="16" y="-1"/>
  <path d="M22 14h2v1h-2zM26 13h2v1h-2z" fill="#00ff41"/>

  <!-- Frame 3 -->
  <use href="#body" x="32" y="0"/>
  <path d="M38 14h2v1h-2zM41 14h2v1h-2z" fill="#00ff41"/>

  <!-- Frame 4 -->
  <use href="#body" x="48" y="-1"/>
  <path d="M53 13h2v1h-2zM57 14h2v1h-2z" fill="#00ff41"/>
</svg>
